<?xml version="1.0" encoding="utf-8"?>
<!-- Generator: Adobe Illustrator 24.0.1, SVG Export Plug-In . SVG Version: 6.00 Build 0)  -->
<svg version="1.1" id="Layer_1" xmlns="http://www.w3.org/2000/svg" xmlns:xlink="http://www.w3.org/1999/xlink" x="0px" y="0px"
	 viewBox="0 0 40 40" style="enable-background:new 0 0 40 40;" xml:space="preserve">
<style type="text/css">
	.st0{fill:#C8513C;}
	.st1{fill:#4E4D4E;}
</style>
<g>
	<path class="st0" d="M34.3,1.22c0,0-0.6,12-10.02,10.02C22.51,2,34.3,1.22,34.3,1.22z"/>
	<path class="st1" d="M24.29,11.89v3.19c4.06,1.68,6.92,5.67,6.92,10.33c0,6.16-5.01,11.17-11.17,11.17S8.86,31.58,8.86,25.41
		c0-4.66,2.86-8.65,6.92-10.33v-3.19c-5.75,1.81-9.92,7.18-9.92,13.52c0,7.83,6.35,14.17,14.17,14.17c7.83,0,14.17-6.35,14.17-14.17
		C34.21,19.07,30.04,13.7,24.29,11.89z"/>
	<path class="st1" d="M20.03,25.41L20.03,25.41c-0.78,0-1.42-0.63-1.42-1.42V11.24h2.83V24C21.45,24.78,20.82,25.41,20.03,25.41z"/>
</g>
</svg>
